<svg xmlns="http://www.w3.org/2000/svg" viewBox="0 0 800 460"><rect width="800" height="460" fill="#e8f4ef"/><circle cx="110" cy="90" r="70" fill="#b8dfcd"/><path d="M0 370c160-80 260-40 390-90s260-20 410 65v115H0z" fill="#74b696"/><g fill="#fff"><circle cx="295" cy="150" r="48"/><circle cx="505" cy="150" r="48"/><path d="M215 330c0-90 35-135 80-135s80 45 80 135zM425 330c0-90 35-135 80-135s80 45 80 135z"/></g><path d="M400 310c-95-68-120-118-76-150 30-22 61-5 76 22 15-27 46-44 76-22 44 32 19 82-76 150z" fill="#3157c8"/></svg>
