<svg xmlns="http://www.w3.org/2000/svg" viewBox="0 0 240 240"><defs><linearGradient id="a" x1="0" y1="0" x2="1" y2="1"><stop stop-color="#3157c8"/><stop offset="1" stop-color="#7455d9"/></linearGradient></defs><rect width="240" height="240" rx="120" fill="url(#a)"/><circle cx="120" cy="92" r="47" fill="#f4c6aa"/><path d="M66 218c5-62 27-88 54-88s49 26 54 88" fill="#fff"/><path d="M73 92c0-52 22-75 50-75 36 0 55 31 45 81-8-37-27-47-56-38-15 5-25 16-39 32z" fill="#29213d"/><circle cx="103" cy="93" r="4" fill="#29213d"/><circle cx="139" cy="93" r="4" fill="#29213d"/><path d="M105 113c10 8 20 8 30 0" fill="none" stroke="#b66b5e" stroke-width="4" stroke-linecap="round"/></svg>
